# xmcd
#
# Track frame offsets: 
#        150
#        14355
#        25364
#        33741
#        44225
#        55724
#        66584
#        76378
#        89788
#        101242
#        117811
#        126447
#
# Disc length: 1886 seconds
#
# Revision: 3
# Processed by: cddbd v1.5.2PL0 Copyright (c) Steve Scherf et al.
# Submitted via: ExactAudioCopy v1.0b3
#
DISCID=b4075c0c
DTITLE=Françoise Hardy - Greatest Recordings
DYEAR=1995
DGENRE=Chanson
TTITLE0=Tous les Garons et les Filles
TTITLE1=Le Temps de l'Amour
TTITLE2=Le Premier Bonheur du Jour
TTITLE3=Mon Amie la Rose
TTITLE4=All Over the World
TTITLE5=L'Amiti
TTITLE6=Ce Petit Coeur
TTITLE7=Je Ne Suis L Pour Personne
TTITLE8=ll Est des Choses
TTITLE9=La Maison O J'ai Grandi
TTITLE10=Comme
TTITLE11=Voil
EXTD=
EXTT0=
EXTT1=
EXTT2=
EXTT3=
EXTT4=
EXTT5=
EXTT6=
EXTT7=
EXTT8=
EXTT9=
EXTT10=
EXTT11=
PLAYORDER=
